<?xml version="1.0" encoding="UTF-8" standalone="no"?>
<!-- Created with Inkscape (http://www.inkscape.org/) -->

<svg
   xmlns:dc="http://purl.org/dc/elements/1.1/"
   xmlns:cc="http://creativecommons.org/ns#"
   xmlns:rdf="http://www.w3.org/1999/02/22-rdf-syntax-ns#"
   xmlns:svg="http://www.w3.org/2000/svg"
   xmlns="http://www.w3.org/2000/svg"
   xmlns:sodipodi="http://sodipodi.sourceforge.net/DTD/sodipodi-0.dtd"
   xmlns:inkscape="http://www.inkscape.org/namespaces/inkscape"
   width="210mm"
   height="297mm"
   viewBox="0 0 210 297"
   version="1.1"
   id="svg8"
   inkscape:version="0.91 r13725"
   sodipodi:docname="InnerStandForLEDStrip.svg"
   inkscape:export-filename="InnerStandForLEDStrip.png"
   inkscape:export-xdpi="300.26001"
   inkscape:export-ydpi="300.26001">
  <defs
     id="defs2" />
  <sodipodi:namedview
     id="base"
     pagecolor="#ffffff"
     bordercolor="#666666"
     borderopacity="1.0"
     inkscape:pageopacity="0.0"
     inkscape:pageshadow="2"
     inkscape:zoom="0.69296465"
     inkscape:cx="347.35967"
     inkscape:cy="404.52365"
     inkscape:document-units="mm"
     inkscape:current-layer="layer1"
     showgrid="false"
     inkscape:window-width="1920"
     inkscape:window-height="1027"
     inkscape:window-x="1672"
     inkscape:window-y="1192"
     inkscape:window-maximized="1" />
  <metadata
     id="metadata5">
    <rdf:RDF>
      <cc:Work
         rdf:about="">
        <dc:format>image/svg+xml</dc:format>
        <dc:type
           rdf:resource="http://purl.org/dc/dcmitype/StillImage" />
        <dc:title />
      </cc:Work>
    </rdf:RDF>
  </metadata>
  <g
     inkscape:label="Layer 1"
     inkscape:groupmode="layer"
     id="layer1">
    <path
       style="opacity:1;vector-effect:none;fill:none;fill-opacity:1;fill-rule:nonzero;stroke:#000000;stroke-width:0.10000001;stroke-linecap:butt;stroke-linejoin:round;stroke-miterlimit:4;stroke-dasharray:none;stroke-dashoffset:0;stroke-opacity:1;paint-order:normal"
       d="m 102.75357,233.34889 a 32.450001,32.450001 0 0 1 -32.449996,32.45 32.450001,32.450001 0 0 1 -32.450001,-32.45 32.450001,32.450001 0 0 1 32.450001,-32.45 32.450001,32.450001 0 0 1 32.449996,32.45 z"
       id="path836" />
    <path
       style="opacity:1;vector-effect:none;fill:none;fill-opacity:1;fill-rule:nonzero;stroke:#000000;stroke-width:0.1;stroke-linecap:butt;stroke-linejoin:round;stroke-miterlimit:4;stroke-dasharray:none;stroke-dashoffset:0;stroke-opacity:1;paint-order:normal"
       d="m 57.669044,140.67857 h 18.3 v 46 h -18.3 z"
       id="rect851" />
    <path
       style="opacity:1;vector-effect:none;fill:none;fill-opacity:1;fill-rule:nonzero;stroke:#000000;stroke-width:0.09999998;stroke-linecap:butt;stroke-linejoin:round;stroke-miterlimit:4;stroke-dasharray:none;stroke-dashoffset:0;stroke-opacity:1;paint-order:normal"
       d="m 46.869045,230.3989 h 9.9 v 5.9 h -9.9 z"
       id="rect868-6-7-6-2" />
    <path
       style="opacity:1;vector-effect:none;fill:none;fill-opacity:1;fill-rule:nonzero;stroke:#000000;stroke-width:0.09999999;stroke-linecap:butt;stroke-linejoin:round;stroke-miterlimit:4;stroke-dasharray:none;stroke-dashoffset:0;stroke-opacity:1;paint-order:normal"
       d="m 61.869045,230.3989 h 9.9 v 5.9 h -9.9 z"
       id="rect868-6-7-6-2-0" />
    <path
       style="opacity:1;vector-effect:none;fill:none;fill-opacity:1;fill-rule:nonzero;stroke:#000000;stroke-width:0.09999999;stroke-linecap:butt;stroke-linejoin:round;stroke-miterlimit:4;stroke-dasharray:none;stroke-dashoffset:0;stroke-opacity:1;paint-order:normal"
       d="m 76.837379,230.3989 h 9.9 v 5.9 h -9.9 z"
       id="rect868-6-7-6-2-2" />
    <path
       transform="rotate(-90)"
       style="opacity:1;vector-effect:none;fill:none;fill-opacity:1;fill-rule:nonzero;stroke:#000000;stroke-width:0.09999999;stroke-linecap:butt;stroke-linejoin:round;stroke-miterlimit:4;stroke-dasharray:none;stroke-dashoffset:0;stroke-opacity:1;paint-order:normal"
       d="m -186.67857,80.202377 h 9.9 v 5.9 h -9.9 z"
       id="rect868-6-7-6-2-2-9" />
    <path
       transform="rotate(-90)"
       style="opacity:1;vector-effect:none;fill:none;fill-opacity:1;fill-rule:nonzero;stroke:#000000;stroke-width:0.09999999;stroke-linecap:butt;stroke-linejoin:round;stroke-miterlimit:4;stroke-dasharray:none;stroke-dashoffset:0;stroke-opacity:1;paint-order:normal"
       d="m -143.61095,80.202377 h 9.9 v 5.9 h -9.9 z"
       id="rect868-6-7-6-2-2-9-2" />
    <path
       transform="rotate(-90)"
       style="opacity:1;vector-effect:none;fill:none;fill-opacity:1;fill-rule:nonzero;stroke:#000000;stroke-width:0.09999999;stroke-linecap:butt;stroke-linejoin:round;stroke-miterlimit:4;stroke-dasharray:none;stroke-dashoffset:0;stroke-opacity:1;paint-order:normal"
       d="m -100.54332,80.202377 h 9.9 v 5.9 h -9.9 z"
       id="rect868-6-7-6-2-2-9-2-2" />
    <path
       style="opacity:1;vector-effect:none;fill:none;fill-opacity:1;fill-rule:nonzero;stroke:#000000;stroke-width:0.09999998;stroke-linecap:butt;stroke-linejoin:round;stroke-miterlimit:4;stroke-dasharray:none;stroke-dashoffset:0;stroke-opacity:1;paint-order:normal"
       d="m 46.837456,27.8107 c 0,0 -2.01071,1.656588 -8.7018,10.724925 -4.22061,5.720135 -9.53218,10.075989 -12.98112,12.783716 -3.44895,2.707722 -7.3482,3.490992 -6.50612,8.430494 0.88707,5.203451 3.38221,2.779239 9.37313,4.035411 6.6162,1.38728 18.81591,1.967323 18.81591,1.967323 0,0 4.83178,13.133755 6.20944,31.923117 1.85346,25.278794 -1.34979,55.887024 -1.3498,55.887024 l -4.58938,33.41347 -0.27026,5.73453 v 2.30012 h 9.90017 v -2.30012 h 5.09994 v 2.30012 h 9.90017 v -2.30012 h 5.09995 v 2.30012 h 9.89965 v -2.30012 l 2.76988,-7.25289 c 4.76279,-12.47132 4.10317,-50.44078 2.93575,-64.4115 C 89.959726,91.32907 92.554636,84.604367 70.549456,62.671766 57.735056,49.899634 54.097986,27.8107 54.097986,27.8107 h -1.36064 v 9.828858 h -5.89989 z"
       id="rect868-2-7"
       inkscape:connector-curvature="0"
       sodipodi:nodetypes="cscsscsccccccccccccccsssccccc" />
    <path
       style="opacity:1;fill:none;fill-opacity:1;fill-rule:nonzero;stroke:#000000;stroke-width:0.09999999;stroke-linecap:butt;stroke-linejoin:round;stroke-miterlimit:4;stroke-dasharray:none;stroke-dashoffset:0;stroke-opacity:1;paint-order:normal"
       d="m 60.975688,28.925486 c -2.88947,0.94704 -0.15567,13.378839 4.31961,21.541022 3.70837,6.76347 15.23897,17.41383 15.23897,17.41383 l 4.73976,0 0,-14.89986 2.94995,0 2.94995,0 0,14.89986 4.73976,0 c 0,0 12.271512,-10.4856 16.059662,-17.41383 4.43073,-8.103441 6.29923,-19.707433 3.76941,-22.080988 -1.9784,-1.856202 -8.94781,5.158167 -14.16436,7.28954 -5.396422,2.204862 -13.354422,2.024873 -13.354422,2.024873 0,0 -7.01289,-0.224986 -12.94919,-2.024873 -5.39267,-1.63506 -11.19597,-7.766641 -14.2991,-6.749574 z"
       id="rect868-6-6-0-3-4-8"
       inkscape:connector-curvature="0"
       sodipodi:nodetypes="sscccccccssscss" />
    <path
       style="opacity:1;vector-effect:none;fill:none;fill-opacity:1;fill-rule:nonzero;stroke:#000000;stroke-width:0.1;stroke-linecap:butt;stroke-linejoin:round;stroke-miterlimit:4;stroke-dasharray:none;stroke-dashoffset:0;stroke-opacity:1;paint-order:normal"
       d="m 102.13381,83.942446 v 6.701099 h -6.000145 v 9.899665 h 6.000145 v 33.16748 h -6.000145 v 9.90017 h 6.000145 v 33.16749 h -6.000145 v 9.90017 h 6.000145 v 5.93246 h 9.44956 c 0,0 -1.87466,-18.36496 -1.66385,-49.34916 0.2108,-30.98419 -0.85978,-53.432342 -4.56659,-56.852798 -2.3149,-2.136069 -3.21912,-2.466576 -3.21912,-2.466576 z"
       id="rect1181-6"
       inkscape:connector-curvature="0"
       sodipodi:nodetypes="cccccccccccccccssc" />
  </g>
</svg>
